<svg width="720" height="720" xmlns="http://www.w3.org/2000/svg" xmlns:xlink="http://www.w3.org/1999/xlink" overflow="hidden"><defs><clipPath id="clip0"><rect x="0" y="0" width="720" height="720"/></clipPath></defs><g clip-path="url(#clip0)"><rect x="0" y="0" width="720" height="720" fill="#FFFFFF" fill-opacity="0"/><path d="M360 0C161.1 0 0 161.1 0 360 0 519.3 103.05 653.85 246.15 701.55 264.15 704.7 270.9 693.9 270.9 684.45 270.9 675.9 270.45 647.55 270.45 617.4 180 634.05 156.6 595.35 149.4 575.1 145.35 564.75 127.8 532.8 112.5 524.25 99.9 517.5 81.9 500.85 112.05 500.4 140.4 499.95 160.65 526.5 167.4 537.3 199.8 591.75 251.55 576.45 272.25 567 275.4 543.6 284.85 527.85 295.2 518.85 215.1 509.85 131.4 478.8 131.4 341.1 131.4 301.95 145.35 269.55 168.3 244.35 164.7 235.35 152.1 198.45 171.9 148.95 171.9 148.95 202.05 139.5 270.9 185.85 299.7 177.75 330.3 173.7 360.9 173.7 391.5 173.7 422.1 177.75 450.9 185.85 519.75 139.05 549.9 148.95 549.9 148.95 569.7 198.45 557.1 235.35 553.5 244.35 576.45 269.55 590.4 301.5 590.4 341.1 590.4 479.25 506.25 509.85 426.15 518.85 439.2 530.1 450.45 551.7 450.45 585.45 450.45 633.6 450 672.3 450 684.45 450 693.9 456.75 705.15 474.75 701.55 621.297 652.091 719.973 514.669 720 360 720 161.1 558.9 0 360 0Z" fill="#FFFFFF"/></g></svg>